HIERARCHY
ROOT root
{
	OFFSET 0.000000 0.000000 0.000000
	CHANNELS 6 Xposition Yposition Zposition Zrotation Yrotation Xrotation
	JOINT lhip
	{
		OFFSET 0.058581 -0.082280 -0.017664
		CHANNELS 3 Zrotation Yrotation Xrotation
		JOINT lknee
		{
			OFFSET 0.043451 -0.386469 0.008037
			CHANNELS 3 Zrotation Yrotation Xrotation
			JOINT lankle
			{
				OFFSET -0.014790 -0.426874 -0.037428
				CHANNELS 3 Zrotation Yrotation Xrotation
				JOINT ltoe
				{
					OFFSET 0.041054 -0.060286 0.122042
					CHANNELS 3 Zrotation Yrotation Xrotation
					End Site
					{
						OFFSET 0.000000 0.000000 0.000000
					}
				}
			}
		}
	}
	JOINT rhip
	{
		OFFSET -0.060310 -0.090513 -0.013543
		CHANNELS 3 Zrotation Yrotation Xrotation
		JOINT rknee
		{
			OFFSET -0.043257 -0.383688 -0.004843
			CHANNELS 3 Zrotation Yrotation Xrotation
			JOINT rankle
			{
				OFFSET 0.019056 -0.420046 -0.034562
				CHANNELS 3 Zrotation Yrotation Xrotation
				JOINT rtoe
				{
					OFFSET -0.034840 -0.062106 0.130323
					CHANNELS 3 Zrotation Yrotation Xrotation
					End Site
					{
						OFFSET 0.000000 0.000000 0.000000
					}
				}
			}
		}
	}
	JOINT lowerback
	{
		OFFSET 0.004439 0.124404 -0.038385
		CHANNELS 3 Zrotation Yrotation Xrotation
		JOINT upperback
		{
			OFFSET 0.004488 0.137956 0.026820
			CHANNELS 3 Zrotation Yrotation Xrotation
			JOINT chest
			{
				OFFSET -0.002265 0.056032 0.002855
				CHANNELS 3 Zrotation Yrotation Xrotation
				JOINT lowerneck
				{
					OFFSET -0.013390 0.211636 -0.033468
					CHANNELS 3 Zrotation Yrotation Xrotation
					JOINT upperneck
					{
						OFFSET 0.010113 0.088937 0.050410
						CHANNELS 3 Zrotation Yrotation Xrotation
						End Site
						{
							OFFSET 0.000000 0.000000 0.000000
						}
					}
				}
				JOINT lclavicle
				{
					OFFSET 0.071702 0.114000 -0.018898
					CHANNELS 3 Zrotation Yrotation Xrotation
					JOINT lshoulder
					{
						OFFSET 0.122921 0.045205 -0.019046
						CHANNELS 3 Zrotation Yrotation Xrotation
						JOINT lelbow
						{
							OFFSET 0.255332 -0.015649 -0.022946
							CHANNELS 3 Zrotation Yrotation Xrotation
							JOINT lwrist
							{
								OFFSET 0.265709 0.012698 -0.007375
								CHANNELS 3 Zrotation Yrotation Xrotation
								End Site
								{
									OFFSET 0.000000 0.000000 0.000000
								}
							}
						}
					}
				}
				JOINT rclavicle
				{
					OFFSET -0.082954 0.112472 -0.023707
					CHANNELS 3 Zrotation Yrotation Xrotation
					JOINT rshoulder
					{
						OFFSET -0.113228 0.046853 -0.008472
						CHANNELS 3 Zrotation Yrotation Xrotation
						JOINT relbow
						{
							OFFSET -0.260127 -0.014369 -0.031269
							CHANNELS 3 Zrotation Yrotation Xrotation
							JOINT rwrist
							{
								OFFSET -0.269108 0.006794 -0.006027
								CHANNELS 3 Zrotation Yrotation Xrotation
								End Site
								{
									OFFSET 0.000000 0.000000 0.000000
								}
							}
						}
					}
				}
			}
		}
	}
}
MOTION
Frames: 7
Frame Time: 0.033333
0.270804 0.326324 0.928724 107.648784 8.353592 96.124369 -11.629046 -11.321579 -27.170236 -8.529576 8.922187 27.493170 21.123566 15.563341 -14.339936 0.000000 -0.000000 0.000000 -9.025410 -1.595473 -9.328301 -0.043383 -1.785149 78.335474 7.154055 -10.732011 3.299800 0.000000 -0.000000 0.000000 3.566731 2.879021 21.328326 5.317432 2.131309 -5.172234 1.871243 1.576174 3.035602 -1.363646 -3.784816 -19.997282 -3.084978 2.852701 -2.519629 -20.873506 15.797072 3.890668 -56.891364 14.103964 13.709870 -154.547172 -75.166037 175.662403 16.255072 -10.317878 -36.457711 23.645063 -6.473475 -2.551915 53.172650 -6.362662 16.582622 -47.028568 71.190284 -36.400293 -1.318203 17.628246 -5.239172 
0.389777 0.348941 0.912591 112.459166 9.071955 95.791534 -13.407378 -9.814602 -19.130706 -8.215400 3.876683 32.910695 21.618524 18.880559 -24.181622 0.000000 -0.000000 0.000000 -10.016348 -1.244229 -19.525404 0.222483 -3.767355 85.052920 5.490468 -12.953872 -0.963445 0.000000 -0.000000 0.000000 4.615734 -1.239785 23.017572 4.745762 2.675715 -6.814000 1.156393 0.819693 3.512226 -0.843031 -3.868472 -22.598425 -3.432999 2.903958 -0.777553 -24.006943 14.695962 0.473048 -57.299292 5.617408 15.045863 -172.877155 -73.386109 -164.890144 16.348988 -9.795154 -36.903719 25.996297 -7.776706 -2.407196 52.118374 -8.837895 16.341721 -37.932801 64.634848 -28.589833 -3.094129 17.513674 -4.301967 
0.507931 0.378773 0.909469 117.339009 9.454167 95.410621 -13.162385 -6.233444 -8.300634 -9.379133 -3.373677 33.022510 18.393031 18.181043 -28.262224 0.000000 -0.000000 0.000000 -11.302103 -1.926369 -29.461399 -0.857477 -5.318952 85.639922 4.867102 -13.502018 -5.112104 0.000000 -0.000000 0.000000 5.485026 -5.295454 23.807279 4.182524 3.199230 -7.592456 0.914306 -0.391463 3.711903 -1.019671 -3.612624 -23.963430 -3.013348 2.855953 0.019453 -25.058452 12.027372 -1.358493 -59.904512 -4.087561 16.434460 174.042317 -68.152709 -150.437245 18.009772 -10.026995 -38.062533 26.506814 -9.361036 -1.506967 51.227685 -12.547375 15.498779 -34.606751 63.533961 -25.341349 -5.810773 17.715604 -6.913884 
0.629270 0.417672 0.916833 121.396294 9.917609 95.433472 -10.653693 -2.667360 3.374213 -9.473738 -11.022183 29.568002 12.363738 15.036408 -25.976137 0.000000 -0.000000 0.000000 -12.297825 -2.891420 -37.240069 -3.047591 -7.761433 79.749744 5.015952 -12.810082 -8.334287 0.000000 -0.000000 0.000000 6.132668 -9.733328 22.499064 4.200481 3.236576 -7.348674 1.092362 -1.609993 3.571831 -1.665671 -2.420585 -23.505233 -2.473258 3.704256 0.359238 -23.425706 10.685396 -1.704244 -63.137924 -11.108588 18.232482 171.284519 -60.686009 -146.968737 19.693016 -10.360093 -41.090695 24.439136 -11.827183 -0.545975 49.578389 -16.213597 15.185651 -28.020912 68.415287 -17.626584 -7.129430 18.587710 -10.175987 
0.755736 0.461394 0.930849 123.641951 10.647044 96.492843 -6.079541 -1.344759 13.012698 -9.033077 -16.807004 24.158522 1.670066 11.248597 -14.137341 0.000000 -0.000000 0.000000 -12.387000 -2.548128 -42.877193 -4.620887 -11.926558 67.476698 5.589503 -11.569104 -8.761440 0.000000 -0.000000 0.000000 7.183293 -12.380328 18.927937 4.365323 2.154390 -6.276398 2.210085 -2.921865 2.765699 -2.596436 -0.192810 -21.485794 -2.786006 4.836815 -0.714429 -21.302044 11.314656 -1.459176 -63.893142 -13.542954 19.340913 174.312362 -53.701827 -149.005759 19.499545 -11.924449 -44.057274 21.284963 -14.065124 1.562421 47.280148 -18.346275 14.858440 -18.230474 74.220249 -5.174195 -8.281947 18.883246 -13.141024 
0.882927 0.508100 0.948172 123.396148 10.589185 97.033039 -2.336777 0.558916 20.345323 -6.938119 -19.631039 18.979081 -8.202437 7.795710 3.295889 0.000000 -0.000000 0.000000 -12.122682 -0.912721 -45.669050 -3.465822 -15.379789 50.697437 7.716876 -8.921510 -4.288644 0.000000 -0.000000 0.000000 7.507402 -13.467958 15.266156 4.113568 1.775662 -4.335054 3.121178 -3.783889 1.199268 -3.416903 1.390506 -19.638124 -2.980733 5.921766 -1.760841 -20.749093 12.455003 -0.723763 -61.292547 -12.839066 20.047508 177.737605 -49.011259 -152.232074 18.682115 -13.800429 -42.415590 19.740838 -15.750420 3.625824 45.282761 -19.545619 13.811175 -8.846229 77.616869 3.450922 -8.951963 19.483942 -14.061248 
1.008347 0.554102 0.957807 123.273302 9.688027 97.976795 -1.284590 -0.148361 23.864469 -4.933929 -19.707856 19.132383 -8.677743 8.703214 8.362602 0.000000 -0.000000 0.000000 -12.318012 0.433604 -46.347966 -0.588296 -17.891432 32.519705 14.155593 -8.088013 5.047504 0.000000 -0.000000 0.000000 7.107012 -14.027667 11.376588 4.170179 1.250365 -2.855184 3.258188 -3.865136 0.434728 -3.985570 0.999495 -18.339003 -2.458342 7.223417 -3.201120 -19.921194 13.735047 0.845751 -59.117875 -11.814969 21.162873 -179.790515 -48.170172 -155.077871 18.610290 -14.635050 -40.794831 18.740825 -17.474916 4.870288 45.615967 -20.296094 14.280060 -16.518512 79.486522 -4.232986 -8.504794 19.526428 -14.488698 
